<svg xmlns="http://www.w3.org/2000/svg" viewBox="0 0 635.8542 997.2211"><path d="M551.1611,52.4461c3.0359,1.7482,3.338,12.8736,3.0978,17.7014-.3223,6.4786-2.05,10.242.4425,13.2761,2.08,2.5319,6.3443,3.639,8.8506,2.2126,2.2171-1.2617,1.3982-3.5614,3.54-5.7529,2.7955-2.86,6.9189-1.7347,12.8334-2.2126a43.4969,43.4969,0,0,0,14.1612-3.9829c9.6078-4.8312,13.4293-18.7533,13.7185-27.88,0,0,.8052-25.412-29.65-43.3685A16.7346,16.7346,0,0,0,572.4028.227C564.419-1.16,557.3286,4.1554,553.8162,6.865,524.6436,29.37,514.8733,40.94,514.8731,40.94c-10.4017,12.3175-15.2288,19.2891-25.6669,33.19-46.32,61.6872-47.7615,52.9167-55.7595,71.6907-3.7773,8.8669-13.2145,33.7309-23.0118,33.19-1.922-.1062-5.72-1.2927-11.5061-.4426-4.2561.6254-5.4227,1.7406-8.408,2.2127-6.3265,1-10.776-2.4761-15.9313-4.8679-10.5559-4.8972-20.9847-3.814-27.88-3.0977-7.69.7988-15.7307,3.2292-26.5521,9.7357-29.48,17.7251-49.358,47.0267-54.0049,54.0537-20.6658,31.251-17.1245,40.9008-36.2164,62.8246-3.6394,4.1791-17.032,19.06-25.8691,28.8254-6.211,6.8635-11.3456,12.4977-14.782,16.26,12.0729,15.6654,21.42,27.9584,27.3469,35.4775a15.1936,15.1936,0,0,1,3.4936,7.5821c.5872,4.6121-1.46,8.7995-6.6614,15.987-7.157,9.8907-10.7357,14.8361-14.6546,17.3193-11.6052,7.3535-29.54,7.6657-41.3,0-6.6978-4.3662-8.8649-9.673-14.6548-9.3258-4.9467.2967-9.83,4.558-11.324,9.3258a14.3329,14.3329,0,0,0,.666,9.3257c6.5407,17.4573-19.3175,57.2866-19.3175,57.2867-14.68,22.5024-34.4882,42.9744-73.5041,83a139.8015,139.8015,0,0,0-22.8041,29.32,121.0334,121.0334,0,0,0-14.66,38.2783c-4.8506,25.4079.5513,45.6509,4.8866,61.8967,1.2966,4.8586,6.3829,22.9746,20.3608,48.0515,15.1854,27.2432,52.8789,84.2351,75.5994,76.8375,2.3884-.7776,5.5416-2.57,8.5672-7.1394,13.5409-9.0659,19.11-21.0959,15.7067-27.8434-1.8331-3.6345-5.9558-5.0313-7.8532-5.7115-23.0875-8.2758-37.4051-49.3913-48.5476-81.3886-9.2562-26.5805-11.6178-36.2279-12.1369-43.55a106.119,106.119,0,0,1,2.8557-33.555c2.3758-9.1232,5.4767-15.58,9.995-24.9877A241.2469,241.2469,0,0,1,86.338,574.286c7.1631-11.0464,8.7666-11.7571,17.8484-24.9877,9.2784-13.5171,9.4067-15.4,16.42-25.7017,16.5125-24.2527,20.2234-20.31,25.7018-32.127,11.7226-25.2864-1.3494-51.7982,7.8532-55.687,2.4287-1.0263,4.6075.2842,7.8532,1.4279,20.5838,7.2529,42.0939-5.1911,44.2641-6.4254,2.0465-1.1639,23.9432-14.2509,27.7312-39.9474,2.32-15.7363-9.3525-19.26-6.2583-33.7954.4628-2.1738,1.5457-6.0745,12.5168-20.0268,17.0344-21.6633,24.428-24.9825,32.5437-38.8021,6.1608-10.49,5.9083-15.4025,10.0134-26.2852,7.4708-19.8051,27.49-54.3906,55.0738-62.5839,34.4137-10.2221,57.8653,27.3909,85.1141,15.02,14.421-6.547,17.28-21.362,26.4806-44.0026C481.8281,100.7975,542.5417,47.4826,551.1611,52.4461Z" style="fill:#efd907"/><path d="M453.868,232.8466c-.1694-8.1179,3.5643-18.6643,8.7475-19.6819,2.9412-.5773,5.348,2.11,13.1193,9.1409,6.0508,5.4747,12.5278,10.4653,18.5864,15.9313,16.0284,14.46,16.0416,13.4181,21.2418,18.5865,2.5013,2.486,14.7248,14.8789,22.5693,31.8625,10.22,22.1257,8.6918,42.7,6.6382,70.3632a239.001,239.001,0,0,1-5.31,35.8453c-5.0131,21.4975-10.7093,31.3234-19.9141,55.76-10.4584,27.7635-4.8464,42.2781-15.9313,49.1214-7.5766,4.6773-17.0239,3.2807-23.8969,1.3276l-25.85-6.638-33.8926,78.3287,17.2589,14.6037c4.3335.8624,23.15,5.1,34.5177,22.5693a51.3244,51.3244,0,0,1,7.9657,25.2245c.736,16.762-7.1284,30.109-21.2417,49.1214-18.02,24.2749-27.4721,30.48-53.1043,61.07-13.0449,15.5682-15.9439,20.529-22.5693,28.5435-43.3321,52.4171-109.8967,70.7415-113.51,71.6907-63.1231,16.5829-115.8047-.4809-135.416-7.9656L60.1942,961.1184l-7.9657,4.6466V954.2591l83.1967-154.0023a12.7691,12.7691,0,0,1,6.1954-5.31c6.7857-2.4423,14.3685,3.127,17.7015,5.31,16.4408,10.77,37.6906,10.0434,72.5758,8.8507a210.4677,210.4677,0,0,0,21.2417-1.77c4.0925-.5621,18.73-2.6264,31.8626-7.0806,16.0468-5.4428,26.2463-13.2331,43.3683-26.5521,13.9393-10.8433,27.3744-21.3765,41.5984-38.0581,16.4108-19.2461,26.21-39.35,45.1386-78.7713,9.3561-19.4855,16.514-35.8038,21.2417-46.9087L407.142,584.3l-3.9978-9.5,43.4329-91.6918c.6829-5.1369,3.0346-7.1182,3.8606-7.7214,4.4552-3.2529,11.0033,5.6487,23.1642,7.7214a34.6022,34.6022,0,0,0,11.8825-.0917c2.0343-5.0561,4.9244-12.3394,8.275-21.1477,9.9173-26.0716,16.8963-44.4182,22.0674-64.3625,5.1567-19.8885,9.4191-36.2842,9.1945-58.8456-.13-13-.1943-19.5-2.376-27.0292C510.2375,268.811,454.5035,263.2942,453.868,232.8466Z" style="fill:#2633aa"/><path d="M164.6562,493.7437c-2.8256,3.1258.8372,10.4106,1.2473,11.2262,4.5315,9.0125,16.5384,14.7234,26.1943,12.4734,3.4616-.8065,3.8852-1.9987,19.9576-16.2155,10.1785-9.0031,10.271-8.7573,12.4734-11.2261,7.5269-8.4376,6.356-11.21,13.721-19.9576,5.58-6.6275,9.4716-11.25,16.2153-13.7208,8.0849-2.9629,11.94.2178,18.71-3.7421,4.2635-2.4936,9.6-7.77,8.7312-12.4735-1.15-6.2239-12.9712-10.3918-22.4522-8.7314-6.3658,1.1148-11.8145,6.5793-22.4522,17.4629-12.17,12.4515-18.2556,18.6773-22.4523,26.1943-2.7077,4.85-4.5964,9.4512-9.9788,13.7209a32.3468,32.3468,0,0,1-13.7208,6.2367C177.1071,497.6319,168.1829,489.8423,164.6562,493.7437Z" style="fill:#efd907"/><path d="M353.0058,475.0335c-2.3145,4.2434-.78,10.9087,2.4946,12.4735,0,0,1.9493.9314,12.4736-3.742h0s12.1247,4.9263,13.7207,8.7314a13.7589,13.7589,0,0,1,.5436,1.6143,14.3186,14.3186,0,0,1,.3959,3.287c-.0349,4.7155-5.6176,18.5245-5.6176,18.5247-.6555,1.6211-2.1377,5.2767-4.0531,10.2524-.012.0307-.0914.2377-.1274.3312a208.6955,208.6955,0,0,0-7.0612,20.2978c-1.7356,6.3829-3.1748,11.8563-2.79,19.2862a39.9826,39.9826,0,0,0,.5087,4.9067c.63,3.723,2.46,14.5275,10.7174,20.04,3.845,2.5671,10.8649,5.176,13.721,2.4947,3.1766-2.9822-1.3588-10.1037-3.742-19.9576-4.8166-19.9151,1.8036-40.05,8.7312-61.12,4.1326-12.5689,6.6939-16.0467,4.99-22.4523-2.9416-11.0567-15.33-18.5791-26.1943-19.9576C369.5,469.7629,356.7625,468.1466,353.0058,475.0335Z" style="fill:#2633aa"/><polygon points="147.193 778.139 163.595 768.16 299.248 526.175 282.001 517.934 147.193 778.139" style="fill:#2633aa"/><polygon points="289.391 496.238 310.596 474.472 318.08 469.68 421.61 259.242 415.373 259.242 289.391 496.238" style="fill:#2633aa"/><path d="M522.7253,234.46c-10.1459-8.6509-19.2022-12.9329-20.2128-22.7656-.8151-7.93,11.25-21.4145,35.4133-48.0609,3.4881-3.8466,11.5959-12.7266,21.43-23.32,5.0781-5.47,7.6173-8.2057,8.9244-9.5636,17.6417-18.3288,26.4626-27.4931,35.4133-27.8248,11.7452-.4352,20.5793,10.0523,22.7656,12.6476,1.6282,1.933,13.9408,17.0275,7.5887,32.8839-5.4578,13.624-22.3813,22.0348-30.3543,17.7066-7.4039-4.0193-3.3709-17.006-9.2773-19.3249-6.3717-2.5016-14.0438,11.4413-38.5006,37.1729-14.7962,15.5676-21.3522,20.3165-21.2417,29.2074.1222,9.8259,8.2822,16.2916,14.6037,22.5693,21.8225,21.6713,28.9516,48.269,34.5177,69.0355,10.4437,38.9639,1.2065,73.6378-1.3275,82.3115-1.7422,5.9636-1,1.9778-22.5693,58.4147-8.7446,22.88-11.1413,29.4871-10.6209,39.8282.4446,8.8332,2.7706,15.4816-1.3275,22.5693-4.3449,7.5142-12.8387,10.21-18.5864,11.9484-19.3866,5.864-26.859-2.3847-39.8284,1.3277-20.0026,5.7254-36.0282,35.02-29.2073,50.449,5.129,11.6013,20.32,8.902,37.1731,29.2073a56.4257,56.4257,0,0,1,9.2931,14.6037c6.7028,15.7084,3.8136,30.36,2.6553,35.8453-2.8838,13.657-9.7012,21.06-23.8969,38.5006-11.7316,14.4133-22.6251,29.5011-34.5035,43.7936-31.1956,37.5355-29.3056,41.0988-48.4826,63.3405-24.19,28.0553-48.1509,55.8455-88.3639,71.9422-33.8808,13.5619-65.7326,13.3929-84.4538,13.2936a269.9321,269.9321,0,0,1-56.3027-6.2558L118.7074,965.765l-6.2558,4.7979V957.2692L167.9722,854.83a142.5659,142.5659,0,0,0,14.0756,3.91c30.7732,6.8716,55.9235,1.6985,78.1982-3.1279,14.2184-3.0808,38.1917-8.4564,66.4683-23.4594,5.8958-3.1282,31.6456-17.11,59.43-44.5729,23.378-23.1073,16.72-24.6464,52.3928-67.25,23.8674-28.5044,34.4815-36.9322,43.0089-58.6486,6.6942-17.0478,12.8791-30.603,8.6018-45.3548A42.1667,42.1667,0,0,0,479.2,597.5583c-12.5523-12.1461-24.5995-6.8819-31.2792-16.4216-5.76-8.226-2.0876-19.6892,3.1278-35.9711,4.2019-13.1174,8.6053-26.8637,20.3315-32.0612,5.0428-2.2352,7.8728-1.3082,21.1134-1.564,25.3154-.489,27.458-.0312,30.4973-2.3459,6.4822-4.9368,3.0488-12.0469,7.0379-35.9711,2.7047-16.22,6.8989-28.6419,10.1658-38.317,4.1526-12.2979,7.7033-19.9784,10.1657-25.8054,2.1581-5.107,15.52-36.7247,17.2035-64.9044C569.634,309.5547,555.1327,262.0927,522.7253,234.46Z" style="fill:#5c6463"/><path d="M459.7377,527.4188,445.15,581.1367Z" style="fill:#5c6463"/><line x1="492.0157" y1="511.4189" x2="496.509" y2="511.3493" style="fill:#5c6463"/><polygon points="447.921 582.981 437.48 574.401 467.113 508.021 510.94 513.263 474.21 523.952 447.921 582.981" style="fill:#5c6463"/><circle cx="41.0048" cy="989.8313" r="6.5274" style="fill:#2633aa"/><circle cx="105.9908" cy="990.7604" r="6.4608" style="fill:#5c6463"/></svg>